<?xml version="1.0" encoding="UTF-8"?>
<svg id="Layer_1" data-name="Layer 1" xmlns="http://www.w3.org/2000/svg" viewBox="0 0 2609.464 860.276">
  <path d="M1221.611,468.309l-2.646,3.446-4.433,5.491-5.022,6.065-4.679,6.2-3.628,4.531-4.435,5.314-5.213,6.868-6.023,7.105-4.744,6.16-5.003,6.068-4.838,6.124-3.902,5.057-3.984,5.029-3.582,4.522-4.657,6.178-6.105,7.023-8.227,10.997-5.803,6.798-9.628,12.548-3.046,3.941-4.413,5.69-2.132,2.567-3.517,4.704-4.38,5.574-7.516,9.418-4.661,5.327-4.337,5.711-3.069,4.042-4.072,4.856-3.141,3.742-5.623,7.727-5.004,5.52-3.553,4.689-3.918,5.047-3.617,4.474-4.212,5.632-4.655,5.514-5.191,5.838-2.937,3.839-5.865,8.452-5.086,5.473-3.584,4.662-4.388,5.805-5.006,5.627-3.145,4.043-1.856,2.474-6.13,6.621c-3.525,3.807-7.309,1.752-7.525,1.18l-1.523-4.034-1.815-3.474c.467-1.577,2.23-4.309,3.368-6.074l6.741-10.452,2.585-3.4,7.028-9.008,6.657-9.265,4.487-5.597,3.085-4.006,3.451-5.534c1.605-2.574,3.621-6.126,5.536-8.183l3.984-4.281,4.07-4.565,3.948-5.402,2.982-3.95,3.93-5.059,3.104-3.996,4.586-6.379,3.316-4.545,6.697-8.367,3.579-4.472,5.27-5.767,2.605-3.406,4.657-7.254c1.421-2.214,2.746-4.709,4.64-6.2,1.647-1.297,3.05-2.586,4.083-3.918l3.594-4.635,3.936-5.075,4.63-6.351,3.812-5.077,4.064-5.047,5.574-7.355,10.466-12.586,5.865-7.081,3.6-4.431,4.483-5.547,5.136-6.863,3.356-4.579,3.522-4.537,3.947-4.979,5.015-6.041,4.44-5.484,3.068-3.999,3.055-3.981,3.869-5.07,3.434-4.627,4.385-5.535,4.999-6.041,4.484-5.503,4.018-4.979,2.754-4.249,4.01-5.05,3.977-4.857,6.311-6.963,2.912-3.826,4.276-5.855,3.819-5.229,3.374-4.369,3.329-3.842,4.243-4.897,3.571-4.221c.289-.342-.138-1.747-.6-1.928l-3.973-1.564-6.023.783-25.157-.174-8.852-1.701-7.151-.362-5.637-1.189c-1.103-.233-2.572-3.478-2.207-4.54l2.405-7.01c.654-1.908,5.156-3.134,7.23-3.193l8.008-.229,6.264-.643,6.167-.619,8.646-.825,6.079-.516,7.424-.333,4.688-.39,7.033-1.357,9.058-1.252,7.139-1.47c1.081-.223,3.258-2.141,3.902-3.055l3.411-4.844,4.343-5.208,5.23-8.015,3.884-5.002,5.952-8.186,6.16-7.791,12.663-16.409,2.844-4.242,2.408-3.452,3.011-3.975,3.997-4.994,3.127-3.908,4.462-5.575,3.831-5.077,4.626-6.377,2.946-4.057,6.353-8.752,3.367-4.562,4.654-6.29,5.218-6.858,3.759-5.123,2.677-4.233,3.556-4.637,4.794-6.258,6.069-7.927,3.941-5.037,6.55-9.579,4.587-6.175,4.79-6.334,3.407-4.548,3.416-4.583,3.925-5.182,2.761-4.04,5.485-6.648,3.053-3.88,5.561-7.538,5.049-6.885,5.974-8.249,4.05-4.545,4.022-5.131,3.092-3.942,3.974-5.033,3.625-4.356,4.599-5.423,4.535-5.476,4.503-5.507,4.535-5.445,4.136-4.834,4.164-4.851,3.703-4.316,4.137-4.822,4.75-5.519c2.645-3.073,6.413-14.607,11.636-13.09l3.954,1.148,3.148,6.73,1.353,4.796c.187.662.039,2.918-.24,3.538l-2.2,4.896-7.342,11.443-3.84,5.178-3.664,4.302-5.626,7.691-4.024,4.639-4.088,5.022-4.517,5.489-4.987,6.003-2.742,3.29-4.597,5.469-5.085,5.758-4.629,5.521-3.881,5.003-2.607,3.396-4.463,5.608-4.238,5.725-2.967,4.108-4.784,6.122-4.467,5.552-3.067,3.907-5.756,7.356-4.021,5.855-3.186,4.786-3.032,4.013-3.946,5.071-3.411,4.527-5.096,6.995-2.553,3.409-3.463,4.55-4.704,6.305-6.5,8.523-4.71,6.305-3.404,4.573-3.911,5.08-3.058,3.975-3.894,5.065-4.343,5.652-3.457,4.48-5.592,7.521-4.259,5.726-3.392,4.579-3.413,4.627-3.43,4.511-6.554,8.427-6.154,7.936-4.137,5.827-3.713,5.365-3.837,4.983-4.561,5.545-3.951,4.996-3.026,3.946-5.296,6.963-2.822,4.793,2.361,2.079,7.376.106,8.101.478,7.79,1.449,15.244,2.836c2.381.443,5.864,2.168,7.714,4.231,3.085,3.44,1.292,9.155,3.021,9.759.649.227,2.643.851,3.205.677l5.053-1.569c.896-.278,3.85.928,4.279,1.759l3.614,11.054c-.043,1.548-1.824,5.023-2.751,6.196l-3.204,4.055-3.686,4.117-7.526,7.624-5.354,5.625-3.343,3.736c-.442.494-.906,2.229-.906,2.884l-.002,2.717,3.616-1.259,11.96-5.874,8.06-3.961,3.724-2.004,3.78-2.453,8.226-5.73,6.95-4.952,6.497-3.612,1.621-.904c.48-.268,1.689.522,2.095.975l5.702,6.346c1.565,1.742,3.528,10.63,1.038,14.165l-4.03,5.722-2.922,3.929c-.468.63.013,2.965.242,3.976.127.562,2.079.546,2.619.26l4.554-2.412,6.551-3.465,7.977-4.202,4.603-3.153,11.684-7.47,7.691-5.336,4.131-2.93c1.584-1.123,4.119-3.274,5.687-3.973l5.836-2.604c.879-.392,3.584.876,4.127,1.693l3.629,5.454,2.644,5.431c2.008,4.124,1.62,10.175,1.122,14.653-.462,4.149,1.909,7.59,5.929,9.109l5.897,2.229c4.082,1.542,10.151.094,13.533-2.257l4.97-3.456,3.407-2.614c1.33-1.02,4.226-3.322,5.839-3.706l6.227-1.484c3.281-.782,2.989,5.177,4.957,6.565,1.188.838,2.622,3.238,2.151,4.339-.78,1.821-1.825,3.912-2.586,4.884l-3.614,4.62c-2.608,3.334-5.678,6.193-9.001,8.988l-3.856,3.243-9.119,4.652-4.108,1.268c-1.481.457-5.148.522-6.621.011l-6.176-2.143-5.993-2.968c-1.75-.866-4.682-2.739-5.812-3.953l-4.512-4.847-2.47-3.258-3.053-4.472c-1.279-1.874-2.504-6.149-3.062-8.483l-3.839-.252-5.022,3.511-8.396,5.486-10.904,6.168-5.864,3.203-14.014,7.012-5.51,1.671c-1.818.551-5.679.993-7.339.35l-5.993-2.319c-1.036-.401-3.051-2.235-3.822-3.056l-2.441-2.602-2.356-5.634-1.98-4.726c-1.075-.448-4.638-.057-6.042.63l-13.458,6.584-6.351,2.852-4.719,2.183-15.422,5.236-4.791.783c-1.42.232-4.712.608-5.997.113-2.103-.81-6.252-2.874-7.152-4.622l-3.228-6.263c-.913-1.772-1.535-6.569-.645-8.344l4.703-9.381,2.516-4.604,6.813-10.05,4.557-5.624,2.923-4.002,11.8-11.902c.424-.428,2.377-1.671,2.468-2.208.269-1.597-3.089-3.864-4.771-4.012l-8.326-.735c-3.172-.28-3.725-1.443-6.904-1.965l-4.372-.718-5.639-.565-10.114-.384-14.799-.05-5.076.354c-4.28.299-7.202,3.835-9.943,7.319l-2.3,2.923-3.96,5.034-3.506,4.482-4.73,6.307-3.873,5.202-4.688,5.322-3.955,4.843-4.722,6.329-3.984,5.057-3.528,4.451-4.01,4.982-4.506,5.547-3.927,5.018Z"/>
  <g>
    <path d="M2482.339,456.11l-15.07,14.901-4.697,4.279-4.829,4.343-5.666,4.109-4.039,3.164c-2.583,2.023-4.935,3.568-8.289,4.819-7.872,2.937-10.988.915-15.817-4.674-.845-.978-2.728-3.461-3.197-4.623-.918-2.278-2.363-7.078-2.413-9.49l-.248-11.982c-.019-.918.483-3.453.72-4.301l2.583-9.236,3.637-11.577,4.052-10.606-3.596-1.666c-3.225-1.494-6.619-3.719-8.011-6.766l-.919-2.013c-.172-.377-1.071.785-1.159,1.262l-1.244,6.717-.963,6.169c-.193,1.239-.387,3.318-.895,4.11l-2.674,4.162-3.87,6.189-1.974,3.129-3.231,5.031c-1.025,1.597-3.672,3.916-5.222,5.399l-6.237,5.964-3.661,3.093-4.775,3.47-4.365,2.498-7.104,4.057-4.507,2.322-9.052,3.008-7.386,1.963c-4.972,1.321-13.882-.424-17.479-2.69l-5.268-3.317c-2.024-1.275-5.734-4.629-6.758-6.689l-4.397-8.842-2.697-6.522c-.776-1.876-.247-6.088-.094-8.287l.306-4.383c.305-4.367,1.987-8.773,4.451-12.408l4.523-6.671,4.665-6.296,10.332-10.432,4.487-2.755,5.18-4.548,7.289-2.986,12.022-4.311c1.174-.421,4.45-.31,5.388.467l3.837,3.181,3.574,3.395.286,2.142,2.276,9.605c.418,1.766-1.498,6.016-3.184,6.415l-4.635,1.096c-6.443-4.24-14.51.505-22.051,5.536l-3.529,2.354-4.025,4.155-3.969,4.743-4.809,6.599c-1.471,2.019-3.603,6.178-3.505,9.039.158,4.61,13.872,8.935,23.122,3.514l5.153-3.019,4.518-2.645,5.52-3.279,10.938-10.827,2.393-3.874c1.129-.969,3.305-2.83,3.909-4.039l6.406-12.827c1.299-2.6,1.845-5.945,1.923-8.645l-6.673-1.854c-1.063-.295-3.758-1.839-4.137-2.837l-2.053-5.405c-1.434-3.776,1.74-8.124,7.547-10.475l3.144-1.273c1.752-.709,4.526-.377,6.427.848,1.499.966,4.006,2.196,4.898,3.135l4.472,4.71c.522.55,1.679,2.196,2.011,2.856l2.72,5.401.822,5.213.77,4.931,1.243-.103,3.111-2.057,2.344-2.693,5.311-2.542,7.467-2.835c2.272-.863,6.651-1.977,9.125-1.802l4.456.317c.764.054,2.521,1.209,2.999,1.807l3.196,3.997,2.512,8.566c.569,1.94-.839,11.288-2.182,14.138l-4.234,8.988-3.893,8.265-3.468,9.18c-.165.438-.079,2.364.345,2.257s1.628-.388,1.954-.655l3.308-2.701,4.38-3.668,2.955-2.961,8.036-8.052,4.689-4.513,13.712-13.43,2.914-2.125,9.238-9.04,2.659-1.961,9.572-9.055,4.686-4.391,3.081-2.114,6.042-3.099c2.124-1.09,6.66-2.044,8.298-.716l5.226,4.237c.709.575,1.917,2.554,2.423,3.598l3.162,6.521.653,4.821c.42,3.099.525,6.365.028,9.271l-.805,4.707-1.048,6.132c-.365,2.134-.425,5.058-.046,7.125l1.153,6.295,1.804,6.501c.541,1.949,4.825,3.976,6.959,4.683,8.108,2.684,16.946,1.231,24.496-2.37l4.946-2.358,6.873-3.279c4.749-2.266,4.808-5.243,5.218-5.194l2.643.313c2.005.237,5.47-2.009,7.26-3.687l1.771,1.174,3.05,3.445c3.661,4.136,6.962,10.294,4.981,13.771-2.194,3.851-7.477,10.405-11.371,13.636l-5.781,4.798c-1.818,1.508-5.467,4.028-7.552,4.807l-7.64,2.854c-10.481,3.915-23.701,3.816-33.219-1.525l-5.37-3.014c-1.883-1.057-3.983-4.176-5.706-5.943l-3.575-3.667c-1.129-1.158-3.301-4.107-3.955-5.618l-2.826-6.536-2.367-8.212-1.088-7.864-.726-8.172-.213-3.147c-.028-.413-.572-1.482-.764-1.856s-1.562.524-1.878.855l-5.339,5.59-4.491,4.429-5.897,5.236-3.604,3.29-10.179,9.917-2.987,3.011Z"/>
    <path d="M2233.236,458.579c-2.369-6.065.639-11.672,6.835-14.876l6.243-3.228c.684-.354,3.02-.526,3.881-.629,1.359-.163.23,3.994,3.817,4.101l5.903.176c.734.022,1.336,2.626,1.736,3.258l2.875,4.54c.896,1.415.382,4.78-.636,6.271l-1.788,2.617,8.011,2.068c1.527.394,3.333-4.888,2.818-8.703l-.858-6.349-2.402-10.338-2.01-5.914-3.047-7.269-2.138-4.693-5.419-10.672-2.471-4.556-4.513-9.662c-4.113-8.805,4.048-21.932,14.521-26.224l5.911-2.422,6.918-2.838,14.149-4.084,6.465-1.424,10.057-1.91,7.01-1.332c2.195-.417,6.482-.543,7.876-.308l4.623,5.646,3.291,10.742-2.197,6.881c-.325,1.018-2.574,3.287-3.685,3.33l-8.7.338-8.178,1-6.785,1.086-9.722,2.221-10.915,3.181-5.993,1.829c-1.085.331-3.074,3.357-2.525,4.344l3.053,5.481,1.873,3.755,5.751,12.409c.761,1.642,2.177,4.497,2.475,6.071l1.202,6.355,2.225,8.089,1.144,6.291,1.114,6.574.044,17.184c.005,1.897-1.299,5.983-2.081,7.638l-2.302,4.868c-2.133,4.51-5.121,6.352-10.145,7.891-4.892,1.498-14.666-.665-19.414-3.259l-6.182-3.378c-1.935-1.058-4.681-4.335-6.317-6.222-5.513-4.237-8.86-9.442-11.398-15.942Z"/>
    <path d="M2171.496,460.36c1.108,5.6-.842,11.367-5.487,13.239l-4.042-.838c-1.953-.405-4.515-3.032-5.532-4.987l-2.832-5.445c-.82-1.577-.365-5.552.122-7.563l1.795-7.414,2.339-5.738,6.417-12.638,3.973-7.024,3.625-6.377,5.093-8.96,4.416-7.452,4.243-6.701,3.701-5.511,4.388-8.611c.535-1.049,2.012-3.174,2.788-4.02,4.321-4.713,3.501-6.867,5.335-6.713,2.198,4.251,6.719,3.959,7.784,8.556l1.408,6.081c.348,1.501-.179,5.005-.792,6.45l-3.638,8.576c-.48,1.13-2.033,3.324-2.717,4.249l-3.899,5.271-7.465,11.632-3.499,6.352-4.255,7.612-4.103,7.063-2.589,4.482-2.757,5.241-3.087,6.123c-.565,1.12-.969,3.88-.734,5.068Z"/>
  </g>
  <path d="M2250.978,330.789l-3.508-6.22c-.523-.927-2.045-2.693-1.95-3.597l.645-6.147c.092-.877.888-2.782,1.264-3.479l1.125-2.091c.999-1.856,2.793-4.216,4.447-5.183l4.239-2.477c1.437-.84,4.953.448,6.133,1.763l5.024,5.597c3.245,3.616,2.926,15.015-5.174,17.835l-7.533,2.622-4.711,1.377Z"/>
  <path d="M1389.978,356.789l-3.507-6.22c-.525-.931-2.047-2.685-1.951-3.593l.647-6.159c.092-.874.886-2.77,1.266-3.476l1.121-2.087c.998-1.856,2.791-4.214,4.455-5.187l4.224-2.469c1.43-.836,4.968.444,6.143,1.755l5.021,5.601c3.25,3.625,2.921,15.017-5.173,17.834l-7.533,2.622-4.712,1.377Z"/>
  <g>
    <path d="M713.299,334.548l-13.085,12.541-4.358,3.465-2.957,2.272-7.408,7.089-2.6,1.913-9.574,9.081-5.498,4.604-6.567,5.469-3.769,3.233-5.418,4.65-6.821,6.08-4.859,4.224-3.778,3.154-8.38,6.727-5.657,4.147-5.5,4.647-4.881,4.125-3.842,3.08-6.618,5.467-5.69,4.27-3.973,3.034-5.66,4.429-4.859,3.345-7.234,6.353-4.015,3.061-5.775,4.302-5.476,4.434-11.517,8.519-5.765,4.232-3.477,2.551-4.61,3.299-5.36,3.718-5.938,4.191-3.67,3.097-9.098,6.088-3.526,2.449-9.46,6.568-6.009,4.018-4.64,3.276-4.752,3.224-17.578,11.426-4.979,3.012-9.079,5.951-7.965,5.045-8.546,5.414-4.313,2.649-5.71,3.388-7.504,4.451-5.052,2.996-4.256,2.59-8.66,5.381-4.455,2.521-12.494,6.629-7.644,4.341-5.792,3.219-6.504,3.543-4.515,2.46-4.531,2.411-6.764,3.364-6.638,3.338-6.417,3.4-6.143,3.056-10.108,4.799-4.876,2.167-6.08,2.899-4.757,2.199-6.234,2.78-4.993,2.226-5.267,2.612-5.028,1.893-12.818,5.158-7.737,3.358-7.135,2.923-3.879,1.859-6.043,1.815-9.21,2.896-7.862,3.224-4.974,1.878-13.447,4.621-9.786,3.363-6.214,1.963-3.558,1.078-10.086,3.154-9.026,3.01-6.009,1.979-6.009,1.864-7.692,2.369-8.497,2.703-13.555,4.313-5.109,1.626-7.081,2.204-9.068,2.991-5.051,1.822-6.108,1.92-14.476,4.395-10.133,2.719-9.082,2.22-5.902,1.704-12.928,3.309-5.868,1.111-5.095.906-5.913.966-12.553,1.871c-1.864.278-5.825.715-7.149-.418-4.646-3.975-4.078-11.487-.156-15.013l5.465-2.444,7.194-2.877,4.066-1.034,6.313-.906,11.021-1.788,8.243-1.747,6.339-1.754,9.457-2.422,6.29-1.613,7.015-1.94,8.035-2.045,9.269-2.66,3.923-1.292,27.779-9.152,6.729-2.174,14.532-4.525,12.053-3.981,10.46-3.518,8.325-2.588,7.814-2.288,8.184-2.75,7.037-2.169,9.138-3.053,8.283-3.377,15.681-5.49,8.947-3.093,3.891-1.887,11.099-4.089,3.982-1.79,5.753-2.427,6.322-2.669,4.847-2.156,5.41-2.579,5.407-2.574,9.434-4.485,5.431-2.58,4.688-2.288,5.337-2.658,5.314-2.647,8.011-4.014,4.095-2.062,6.014-2.944,9.966-4.996,5.911-3.163,6.469-3.498,8.491-4.627,11.491-6.419,5.035-2.914,6.981-4.068,4.997-2.963,5.604-3.401,10.006-6.089,4.92-3.063,6.09-3.86,5.491-3.48,4.904-3.072,5.58-3.449,8.644-5.344,6.829-4.266,6.031-3.855,4.792-3.144,15.265-10.776,5.356-3.531,10.973-7.075,7.049-5.124,3.282-2.676,5.724-4.249,4.636-3.357,4.048-2.947,4.653-3.387,5.772-4.159,5.269-3.711,8.292-5.84,3.95-2.963,5.073-3.919,3.957-3.057,3.968-3.068,5.052-3.913,3.946-3.079,5.036-3.967,5.019-3.937,3.962-3.088,4.49-3.5,5.003-3.948,5.526-4.52,4.976-4.069,4.779-4.095,5.982-5.12,5.599-4.41,2.67-2.214,3.878-3.225,5.064-3.921,6.789-6.076,4.979-4.103,4.42-3.66,4.796-4.088,9.763-9.247,5.309-3.69,13.726-13.381,4.354-3.412,4.129-3.938,2.849-2.35,13.124-12.74,6.172-5.907,7.13-6.824,4.033-3.96,5.53-5.458,5.534-5.598,3.578-3.321,4.584-4.402,5.516-5.578,3.19-3.716,5.439-4.483,2.875-3.403,21.272-21.543,3.478-4.368,2.955-3.245,2.871-3.065,4.405-4.618,11.258-11.79,3.228-3.636,3.714-4.352,4.148-4.861,3.717-4.356,6.086-6.771,5.593-6.53,4.453-5.522,6.968-7.132c2.097-2.226,2.783-4.403,6.109-7.74l6.032-6.052,2.887-3.95,6.251-7.79,3.035-3.924,4.865-6.192,4.615-5.452,3.534-4.452,4.877-5.543,1.335-2.336,3.958-5.004,4.702-5.715c.24-.454.919-1.922,1.247-2.262l3.927-4.08,3.66-4.231,3.388-4.688,3.65-5.294,3.943-5.124,3.074-4.026,5.879-7.989,4.824-5.223,3.83-4.229,3.825-4.139,19.525-20.463,4.005-4.217c.548-.577,1.898-1.596,2.599-1.944.876-.436,2.953,1.098,3.532,1.96l-6.913,25.403-2.954,11.087-3.504,9.368-2.283,5.689-6.339,17.92-3.384,9.452-1.618,5.431-2.558,8.245-2.881,9.221-4.437,13.521-1.82,5.267-3.085,8.921-.999,4.261-2.625,8.16-3.409,11.434-2.719,9.231-3.043,10.001-2.022,6.948-2.698,9.564-6.563,21.58-2.497,8.28-1.611,5.369-2.464,8.251-4.046,14.187-3.36,11.586-1.847,6.193-1.922,5.985-3.221,11.805-1.876,7.179-1.106,4.207-1.604,6.047-3.306,12.783-1.847,6.981-3.304,13.952-1.724,5.244-2.04,9.019-2.03,8.976-2.194,9.701-2.728,9.173-.78,3.269-1.203,6.159-3.024,14.627-1.399,3.697-1.371,5.464-1.446,7.613c-.559,2.942,1.034,5.396,2.022,4.663l1.442-1.068,4.045-2.998,5.153-3.819,4.676-3.48,7.257-5.412,2.439-2.881,4.848-3.847,6.405-6.004,3.7-4.063,6.754-6.332,6.098-5.815,3.018-3.027,7.99-8.061,2.744-3.216,5.092-6.004,4.679-4.058,6.937-8.221,4.602-5.449,6.313-7.675c1.065-1.294,3.693-4.637,5.348-4.243,4.922,1.173,9.43,11.809,9.037,14.374l-.701,4.573c-.451,2.942-1.77,6.08-2.9,8.918l-2.897,7.277-1.971,5.02-1.994,5.111c-.484,1.239-2.273,4.239-2.289,5.574l-.121,9.645,1.242,3.51-.07,2.125c-.041,1.248,7.258,2.589,11.237,1.232l8.99-3.067,10.27-4.794,4.726-2.235,8.096-3.924,5.805-3.07,9.749-6.391,5.147-3.877,3.339-2.563,3.869-2.27c7.049-4.136,9.844-8.814,11.938-7.235,6.521,4.916,7.066,8.512,8.041,16.59.286,2.367-1.859,6.127-3.422,7.983l-4.719,5.603-4.412,5.482-6.802,10.173-4.493,8.722c-.667,1.294-1.692,4.447-1.875,5.869l-1.002,7.761c-.584,4.527,6.049,4.61,5.64,10.985-.153,2.387,2.65.846,3.741,5.048.238.917-1.517,3.031-2.444,3.181l-5.259.85c-2.145.347-5.952-1.977-7.666-4.08l-3.716-4.563-2.656-4.291-2.767-6.43c-.761-1.768-.749-5.384-.351-7.295l2.668-12.809c.335-1.607.947-3.098.689-4.096s-3.488-1.032-4.369-.338c-1.943,1.532-5.914,4.24-8.333,5.21l-9.519,3.817-10.943,3.891-4.696,1.245-7.104,1.817-3.494-.271c-11.261,4.16-23.083-12.872-21.922-25.136l.815-8.611c-3.141,1.507-4.733,2.645-6.726,4.821l-3.809,4.16-2.942,2.404-10.471,11.145-5.597,5.469-4.072,3.905-9.397,8.756-4.317,3.431-6.39,4.79-3.919,3.006-5.156,3.978-4.069,2.723-4.424,2.71-12.674,7.369-8.556,4.358-4.924,2.286-4.96,1.802-8.863,1.991-6.025,1.203-5.754,1.264-3.2.557-4.607.136c-2.392.07-4.874-.095-7.47-.538l-10.323-1.762c-1.164-.199-3.953-1.28-4.995-1.82l-8.142-4.215c-1.965-1.017-4.853-4.416-6.292-6.178l-5.168-6.329-4.338-7.561c-.774-1.35-1.221-3.493-1.642-5.26l-1.333-5.607-1.969-6.212c-1.238-3.906-3.272-8.798-2.802-12.945l1.485-13.094.957-6.464c.35-2.364,1.838-6.069,2.967-8.465l4.192-8.895,3.416-4.459,4.811-6.493,3.359-4.367,6.363-5.77c1.212-1.099,2.982-3.97,3.828-5.292.416-.65,2.278-1.221,3.47-1.673,1.07-.406,2.926-2,4.03-2.738l8.279-5.538,4.2-2.037,4.508-2.745c1.083-.659,3.678-1.213,5.332-1.541l7.832-1.556,8.919,2.278c1.405.359,4.082,2.494,5.106,3.535l5.126,5.211,4.676,6.272c1.153,1.547,2.612,4.037,3.187,5.595l2.862,7.756.801-1.941.81.886-.662,1.819-.649,1.791,1.578,1.186c-.161.844.113-.593.308-1.61l1.032-5.2,1.901-9.902,2.22-8.935,2.496-10.563,3.173-13.596,1.864-7.189,1.106-4.265,1.636-7.378,2.344-8.122,1.772-6.277,2.251-7.972,1.723-5.983,3.199-12.105,1.178-6.556c.654-3.64,1.732-5.925,2.898-9.305l3.09-8.959,1.753-6.304,2.175-7.819,1.176-4.253,3.052-10.378,1.519-5.544,2.156-7.867,2.029-6.007,2.353-6.516,1.348-4.719,2.774-9.372,3.576-10.978.766-2.464,2.199-7.076,1.982-6.122,1.702-5.085,1.705-5.097,4.291-12.816,2.996-8.913,1.174-4.702,4.724-11.48,2.413-7.516,1.445-4.825.526-2.272c-2.102,1.544-4.166,2.911-4.939,4.047l-8.444,12.417-3.77,5.293-4.269,5.806-2.989,4.066-2.983,3.829-4.302,4.958-3.31,4.467-4.678,6.35-9.698,12.398-3.552,4.385-6.759,8.277-13.448,15.58-4.807,6.161-5.493,5.285-6.064,8.195-9.141,9.817-3.504,4.386-9.996,11.098-4.728,5.235-8.34,8.731-3.377,3.594-3.343,3.638-6.229,6.83-5.766,6.082-6.119,6.069-5.47,5.461-3.945,4.073-3.329,3.595-17.048,17.057-4.669,4.145-4.016,4.153-4.985,4.929-4.147,3.874-2.562,2.467-9.201,8.864-2.601,2.223-3.374,3.238ZM824.882,464.162l7.918-3.872c1.54-.753,4.218-3.744,5.133-4.8-.776-1.534-2.026-4.275-1.911-5.496l.735-7.857-.448-4.247,1.13-6.774.682-6.235-1.287,2.15c-.465.777-1.655.546-4.879,2.692l-5.069,3.373c-.971.646-3.713-1.547-4.107-2.689-1.961-5.685-4.499-5.852-3.361-8.908l2.023-5.436,3.621-11.242.863-6.017.048-14.895c.006-1.986-1.558-6.23-2.92-8.012-1.302-1.703-5.233-3.876-7.129-4.586-7.254-.478-18.129,3.706-23.258,7.869l-5.684,4.613-4.98,3.933-4.109,3.127-3.824,3.773-4.052,5.223-5.876,8.802-5.067,11.47.196,13.385,1.105,4.141,1.468,7.505,2.202,6.799,2.507,5.497c1.103,2.418,4.171,5.39,6.45,6.565l11.076,5.712,5.891.55,6.124.666,7.266-.645,4.691-.681,7.756-2.147,9.074-3.307Z"/>
    <path d="M1108.564,467.43c-2.748.516-5.792.166-8.567-.086l-6.965-.632c-1.438-.131-4.82-.868-6.138-1.479l-6.379-2.953-6.064-3.785c-1.089-.68-3.296-2.805-3.798-4.033l-2.086-5.106c-1.676-4.102-2.116-7.829.121-11.949,1.044-1.922,3.024-4.933,4.777-6.111,1.645-1.107,7.147-.63,8.271,1.062,1.45,2.181,2.557,6.684,2.877,9.415l1.242,1.434c4.318,1.434,8.78,3.577,13.223,3.601l11.233.062c1.896.01,5.801-2.24,7.039-3.673,1.012-1.171,3.005-5.085,2.577-6.583l-3.589-12.567c-.196-.688-1.983-2.398-2.442-2.947l-3.631-4.332-9.113-9.556-1.927-2.583-7.213-7.557c-.933-.977-2.731-3.482-3.284-4.598l-3.027-6.108c-.673-1.359-1.172-4.957-1.092-6.536.311-6.129,5.12-12.06,10.752-11.982l14.856.205,6.806,1.07,7.086.916,12.095,1.198,12.073,2.416c2.288.458,5.046,1.091,5.875,2.934l2.734,6.075-.969,7.302c-.323,2.433-5.426,5.959-9.96,4.294-1.957-.718-3.907-1.174-5.652-1.361l-6.281-.676-6.105-1.016-6.162-1.052-7.775-2.021c-1.175-.315-2.498,3.167-2.009,4.254s1.895,2.149,3.226,3.517l4.891,5.024,5.012,6.184,3.236,4.718c2.59,3.776,4.393,8.264,5.145,12.735l1.046,6.219.748,6.907-.791,9.449c-.157,1.871-1.235,5.084-2.459,6.49-2.203,2.531-4.956,6.071-7.399,7.389l-8.021,4.327c-1.842.994-5.686,1.64-8.044,2.083Z"/>
  </g>
  <path d="M1747.685,548.001l-5.873,2.383-5.356,1.887-15.737,4.312-6.473.728-7.277-.31c-1.929-.082-5.61-.542-7.082-1.57l-7.116-4.971c-.942-.658-2.644-2.995-3.165-3.923l-2.612-4.652-3.364-6.21-2.235-9.716-.989-7.427c-.364-2.734-.549-7.691-.081-10.383l1.61-9.26.592-4.944,3.789-13.808,4.087-12.969,2.827-6.005,4.812-9.361,1.959-3.05,2.803-4.247,7.707-11.2,4.471-5.618,3.048-3.822,5.176-5.916,4.722-5.314,6.378-6.379,5.034-4.166,4.369-3.644,8.961-6.062,11.44-6.668,3.204-1.578,4.376-1.765,9.664-3.12c3.108-1.004,6.104-1.699,8.908-3.254,3.52-1.952,16.737,1.449,22.024,6.737l5.917,5.918,2.849,3.523,3.642,5.521,2.365.189.831-4.229.312-5.725,2.883-16.092.553-7.446,1.556-8.439.934-7.035,1.34-7.958,1.417-8.139,1.023-6.961.999-7.108.947-5.067,1.271-6.809,1.238-6.895,1.606-9.175,1.248-6.786,1.101-6.094,1.216-6.766,3.319-15.507,1.741-8.135,1.106-5.254,1.724-8.28,2.261-10.306,1.248-5.983,1.893-9.026,1.592-7.382,3.477-15.78,1.638-7.437,1.958-9.013.925-4.877,3.459-11.591,1.144-6.597,1.439-5.739.989-3.945-2.496-.128-1.688,2.937-2.298,3.58-8.276,15.791-3.04,4.925-4.248,6.758-3.633,6.237-2.562,4.542-5.195,8.769-5.721,9.293-3.702,6.288-4.575,7.425-5.808,9.237-3.171,4.759-6.88,10.26-2.522,4.341-6.013,9.012-2.88,3.955-4.418,6.8-3.119,4.8-5.17,7.845-6.16,8.904-11.43,16.525-6.191,8.855-2.888,4.091-3.332,4.733-5.359,7.599-4.989,7.048-3.373,4.587-3.087,3.948-3.138,3.744-1.88,3.282-3.144,3.74-3.054,3.925-3.262,4.672-7.607,10.402-4.2,4.994-3.418,4.51-4.801,6.194-3.472,4.538-3.881,5.116-4.94,6.011-4.142,4.844-4.048,5.107-2.936,3.887-6.257,6.713-2.829,4.438-8.167,8.648-3.965,4.922-4.55,5.549-2.716,3.287-4.629,5.479-8.07,8.744-5.571,6.516-4.621,5.406-4.682,5.253-3.418,3.624-6.86,7.267-3.437,4.305-4.099,4.087-10.474,10.429-2.355,2.733c-1.031,1.196-2.573,2.976-3.806,4.217l-39.795,40.062-3.048,3.067-4.016,3.007-14.48,14.253-3.222,2.3-8.687,8.834-4.084,4.097-6.161,5.707-4.957,4.152-3.295,2.765-6.778,6.078-5.483,4.593-4.959,4.154-4.102,3.797-3.196,2.799-7.031,5.977-5.436,4.622-6.805,6.072-4.881,4.184-8.125,6.842-4.94,4.069-4.381,3.643-4.921,4.08-4.981,4.036-5.528,4.482-5.52,4.597-7.658,7.14-4.307,2.77-5.253,4.482-6.505,4.735-4.422,3.533-7.116,5.979-7.383,5.537-10.323,7.846-6.244,5.356-9.523,6.673-5.743,4.38-5.497,4.334-5.335,3.746-6.45,4.53-4.142,2.858-13.253,9.835-10.726,7.191-9.415,6.53-7.576,5.461-4.72,3.398-9.707,6.314-6.073,3.935-6.808,4.047-12.235,7.823-8.9,5.115-5.502,3.435-4.433,2.639-5.609,3.255-9.118,4.992-3.226,1.725-12.674,6.552-5.331,3.295-8.346,3.81-8.841,3.958-9.97,4.166-11.022,4.171-4.442,1.753-13.764,4.014c-1.81.528-5.465-1.485-6.237-5.28l-1.042-5.123c-.583-2.865,4.689-7.484,7.148-8.563l7.816-3.43,10.648-4.434,4.94-2.019,4.551-2.291c2.056-1.035,3.873-2.575,5.663-3.284l6.727-2.661,6.281-3.256,3.785-2.557,9.775-6.05,6.627-3.511,8.416-4.552,5.234-2.83,4.323-2.446,6.746-4.515c1.839-1.231,4.542-3.424,6.393-4.084,3.526-1.259,6.213-2.394,8.842-4.467l3.859-3.043,8.607-5.601,10.836-7.15,4.784-3.2,4.223-2.831,4.198-2.72,5.542-3.527,4.329-3.568,14.909-10.142,2.328-1.584,9.051-6.143,3.78-3.096,5.129-3.78,5.424-3.712,5.21-3.745,5.087-3.942,3.967-3.074,5.062-3.882,6.823-5.158,8.637-6.332,6.227-4.796,5.633-4.309,6.808-5.216,8.385-6.662,5.652-4.489,3.609-3.225,4.839-4.306,4.38-3.483,5.694-4.321,4.981-3.982,5.492-4.538,6.06-5.015,3.795-3.136,3.919-3.224,6.735-6.028,5.004-4.081,4.976-4.059,3.781-3.173,3.276-2.772,5.362-4.612,4.811-4.239,7.872-7.07,5.85-5.147,11.58-10.438,3.695-3.326,7.859-7.101,5.317-4.71,5.872-5.202,11.05-10.849,2.955-3.006,7.818-7.362,4.145-3.559,3.139-3.101,25.873-26.044,12.571-13.469,4.066-4.048,5.882-5.724,2.518-3.346,11.904-12.403,5.408-5.702,2.437-2.596,6.546-7.295,4.23-5.749,4.345-4.975,8.044-8.558,1.926-2.586,8.134-8.471,2.96-4.011,4.562-5.534,2.736-3.321,4.516-5.486,4.502-5.472,4.565-5.552,5.092-5.66,5.299-6.812,10.842-14.197,3.915-5.01,4.032-5.04,3.465-4.402,6.808-9.431,3.47-4.347,3.25-3.892,3.392-4.441,5.082-7.013,2.483-3.425,7.837-11.334,2.951-3.962,2.579-3.382,6.12-9.028,4.038-5.815,9.848-13.268,3.607-5.276,4.249-6.809,3.544-5.376,4.486-6.575,2.829-4.143,3.679-5.382,3.212-4.757,4.834-7.211,3.164-4.779,6.239-9.756,6.234-9.747,5.853-9.147,2.217-3.775,3.423-5.658,3.585-6.36,7.39-11.637,6.288-9.691,4.529-7.507,3.006-5.012,4.438-7.503,3.241-5.684,5.008-9.187,2.554-4.38,3.037-5.051,2.653-3.347,2.157-3.698,2.205-3.788,6.338-10.655,2.255-3.806,1.272-2.711,1.908-3.932,4.004-7.107,3.546-6.413,2.874-5.309,2.721-7.062,5.117-7.97,19.932-34.096,6.811-11.222,3.222-5.54L1930.873,0c.012-.002.688,1.475.841,1.581l4.004,2.759.455,1.567.501,1.732c.107.369-.429,1.52-.643,1.97l-2.588,5.431-3.75,8.487-5.048,11.926-2.311,5.724-2.579,6.388-2.167,5.886-2.229,5.755-2.537,6.52-3.142,11.951-3.178,13.672-2.691,8.941-3.095,12.029-2.318,9.78-1.334,5.678-1.169,4.889-3.547,14.396-1.355,5.758-2.372,9.477-3.18,12.812-1.957,8.998-1.565,7.419-.904,4.272-3.336,14.52-3.383,14.723-1.493,6.624-3.897,18.151-2.602,12.152-1.597,7.331-1.335,6.649-1.303,6.928-2.901,15.015-2.742,14.278-.593,4.511-.865,7.307-1.803,10.882-2.531,13.464-.694,4.502-1.058,6.983-1.531,10.089-.928,7.136-.99,6.066-.979,6.01-1.067,6.816-.905,6.169-1.151,7.835-.906,6.147-1.024,6.933-.631,5.676-.678,6.215-.563,5.161-.736,6.737-.328,4.673,2.798-.058,2.596-1.77,4.34-2.957c1.045-.712,2.851-2.698,3.844-3.815l6.16-6.928,4.705-5.3,5.2-5.876,10.454-11.327,7.152-8.973,4.807-6.21,3.581-4.548,4.043-4.675,4.448-5.757,4.368-5.58,3.071-3.94,3.513-4.517,5.213-6.859,3.43-4.332,5.503-7.607,5.477-7.568,6.569-9.474,4.857-7.143,3.193-4.836,5.902-9.094,1.691-2.272,7.457-11.464,5.833-9.243,2.133-3.756,6.631-10.461,3.263-5.65,3.002-4.999,4.644-7.4,4.268-6.784,3.023-4.994,3.783-7.231,1.631-3.204,5.309-9.897,6.407-13.631,4.439-10.427,2.446-5.737,1.932-3.829,3.7-8.925c.649-1.566-.187-2.568.542-3.829l1.839-3.181,2.641-6.185,4.568-10.694,2.548-5.602.72-1.553.688-1.486,2.945-6.365,2.875-6.208,5.061-10.919,2.009-5.002,2.698-5.38,2.926-5.867,2.369-4.805,2.578-4.532c2.882-5.067,1.325-6.689,2.722-9.9l1.638-3.763c.566-1.3,3.434-3.089,4.529-4.077l4.375-3.95,5.396,3.897c1.031.745,2.968,2.761,3.249,3.937l1.911,7.99c.348,1.457.184,5.381-.273,6.783l-2.893,8.874-2.205,6.746-3.782,10.242-2.264,4.865-2.24,4.666-2.686,6.519-1.393,3.382-1.485,3.57-3.298,7.681-2.753,6.123-2.592,5.745-3.071,6.745-2.812,6.178-2.257,4.701-5.387,10.642-3.103,5.902-4.735,9.276-2.66,5.309-5.511,10.64-2.672,4.177-5.592,10.698-4.487,8.049-3.059,7.141-3.214,7.686-3.215,7.947-5.767,14.246-.506,1.539-.479,1.394-3.093,7.902-3.631,9.302-.527,1.425-.584,1.641-.532,1.479-.513,1.41-.524,1.495-.503,1.405-.418,1.58-.438,1.663-1.324,3.452.15,1.569-1.495,2.548c-.834,1.422-1.869,4.353-2.487,6.341l-3.066,9.866-2.171,6.79-2.83,8.96-3.074,12.058-1.861,7.279-2.402,9.402-.518,4.742-1.909,7.96-1.053,6.098-.598,5.009-.918,9.312-.407,9.788c-.114,2.738,3.932,4.866,7.612,3.561l6.568-2.33,4.279-2.12c.828-.41,2.538-1.674,3.38-2.34l4.473-3.537,4.706-3.338,8.919-6.329,5.294-4.382,12.814-12.364,3.951-3.976,17.854-18.154,2.004-2.045,6.25-6.696,6.231-6.931,2.958-3.857,1.815-2.426,6.123-6.529,3.038-4.11,4.714-5.278,3.838-4.224,2.971-3.158,2.402-3.298,3.528-5.744c1.81-2.947,3.121-6.303,4.196-9.705l2.129-6.741.495-2.454,1.149-3.95,1.849-5.086,2.108-7.094,3.977-11.93,2.992-8.057,2.28-6.591,2.829-8.141,2.581-6.402,3.699-9.51,2.558-6.361,1.994-5.022,2.2-5.882,3.934-10.041,1.42-3.358,4.102-8.961,4.872-10.196,2.771-6.31,3.627-6.299c3.172-5.507,2.614-6.891,3.958-8.999l2.359-3.699,1.885-3.214,3.308-4.612,1.961-2.919,1.992-3.102,3.119-4.851,3.25-4.879,5.142-5.643,2.601-2.548,2.045-2,3.396-4.371,4.887-3.258c.668-.445,1.687-2.026,1.504-2.714l-.624-2.34,1.898-1.136c.511-.306,4.991-.426,6.273.753l4.21,3.871,3.679,4.247c.939,1.084,1.596,4.472,1.868,5.942l1.318,7.124.868,6.864c.029.227-.276,1.811-.353,2.082l-2.564,9.029-.31,2.084-.769,4.147-.729,2.379-1.866,6.08-1.919,6.031-4.198,11.994-2.262,5.617-3.265,7.725-2.742,6.485-2.397,5.437-1.591,3.252-1.777,3.39-1.701,3.223-10.244,19.842-2.59,4.343-2.064,3.705-4.937,9.267-7.785,12.331-5.664,9.18-5.921,9.055-6.103,8.92-4.997,7.018-4.992,7.011-5.343,7.702-2.892,4.224-3.095,3.926c-2.1,2.664-5.01,6.506-5.825,9.631l-1.952,7.485-1.722,7.34-2.388,10.628-1.469,7.52-1.065,7.016-1.258,8.291-2.241,15.863-.947,6.903-1.042,9.161-.415,9.838-.825,4.967v20.101s.605,4.142.605,4.142l1.223,8.914,1.723,8.403,2.845,8.58c.058.175,1.343,1.307,1.323,1.333.231-.298-.581,2.771-.102,6.543l.323,2.548c.086.677-2.138.629-2.82.504l-1.824-.334-1.75-.502c-1.62-.465-4.68-2.462-5.443-4.131-3.312-7.248-6.154-9.658-6.557-11.074l-4.269-14.999-.341-1.989-.305-1.785-.268-1.566-.286-1.69-.032-1.876-.038-2.072-.027-2.058-.04-1.912-.366-1.649-.364-1.553-.232-1.822v-2.007s.003-2.006.003-2.006l.007-1.996v-1.999s.005-2,.005-2l.007-2v-2s-.004-2-.004-2l-.007-2-.005-1.999v-1.996s-.003-2.006-.003-2.006l.002-2.008.218-1.838.378-1.532.385-1.638.018-1.926.007-2.057.016-2.062.039-1.932.381-1.61.38-1.566.107-1.757.071-2.068.086-1.99.365-1.639.345-1.618.323-1.868.299-6.296.311-1.764.381-1.761.353-1.633.346-1.617.169-1.848.197-2.232-1.246-.766c-.316-.194-1.445-.808-1.395-.85.07-.059-.765,1.27-.979,1.53l-2.611,3.181-3.685,4.496-3.054,3.735-11.343,11.853-3.827,4.001-1.971,2.524-18.802,18.734-3.96,3.084-8.146,7.756-5.485,4.65-5.417,4.594-3.827,3.18-6.429,4.526-4.408,2.616-12.68,6.202-11.482,3.82c-1.302.433-4.221.092-5.375-.41l-4.368-1.901-3.101-1.985c-.983-.629-2.75-2.503-3.245-3.459l-2.478-4.783c-1.921-3.709-4.165-8.808-4.622-12.947l-.72-6.525-.294-3.135.25-4.758.402-3.68.879-8.054.984-9.025.705-5.51,2.251-13.703.331-1.566,6.412-24.597,1.939-7.223.516-1.924c.162-.605-2.307-.701-2.695-.198l-2.151,2.786-8.922,13.173-3.425,4.491-3.818,5.211-2.071,2.956-2.063,3.115-3.374,4.36-3.559,4.482-5.854,7.48-.956,1.221-.982,1.281-2.699,3.543-12.824,16.133-2.306,2.731-3.218,3.742-6.401,7.707-4.589,5.234-4.094,5.019-3.635,4.292-4.821,5.285-3.305,3.679-16.025,15.886-8.157,7.938-2.885,3.031-.986,1.02-2.63,2.408-8.397,7.684-5.354,4.511-5.54,4.495-5.537,4.492-5.67,4.419-10.394,7.62-3.411,2.419-8.853,6.275-8.3,5.494-8.499,4.707-7.7,4.374-5.316,2.561-7.934,3.624ZM2136.287,244.152l-3.299,10.005c3.75-2.848,4.99-5.759,7.15-9.388l5.578-9.366,7.294-13.762,2.6-5.294,2.803-5.277,5.385-10.698,2.469-5.342,3.11-7.089,3.146-6.526,1.941-5.355,4.136-10.652c.393-1.013,1.764-3.309,1.886-4.278l.788-6.219c-1.093.491-3.014,1.227-3.377,1.845l-3.61,6.135-3.985,7.039-5.26,9.925-2.393,4.56-2.354,4.636-2.698,5.448-2.258,4.38-4.407,9.777-2.08,4.915-3.88,9.055-2.408,5.679-2.574,6.283-3.702,9.564ZM1743.306,524.702l5.266-2.596,11.085-5.471,3.034-2.211,10.878-6.979,13.773-9.453,3.929-2.963,5.081-3.965,3.339-2.58,7.195-5.882,4.406-3.597,4.963-4.062,4.793-5.426c1.989-2.251-.653-4.366.481-13.321,1.074-8.486-3.948-6.219-5.577-9.985l-3.899-9.013c1.5-4.427,3.16-9.363,2.495-12.847l-.836-4.384-1.191-6.35-2.719-7.586c-2.542-2.729-6.688-6.867-10.685-6.886l-12.046-.056-10.339,3.183-8.457,3.675-7.247,3.874-3.947,2.898-5.556,3.73-4.533,3.283-10.882,11.04-4.231,4.859-3.287,3.768-6.318,7.617-3.05,4.056-3.136,4.728-3.072,5.093-4.185,7.621-4.991,12.109-5.681,20.56.045,20.578,1.291,6.035c2.449,2.047,6.917,4.375,10.312,4.482l5.32.168,6.974-.67,16.076-4.824,5.128-2.25Z"/>
</svg>